<svg xmlns="http://www.w3.org/2000/svg" width="69.981" height="69.979" viewBox="0 0 69.981 69.979">
  <g id="affordable-pricing" transform="translate(-104.981 -34.998)">
    <path id="Path_458" data-name="Path 458" d="M446.547,318.991a12.191,12.191,0,0,1,3.877-1.051v-2.5a14.852,14.852,0,0,0-5.14,1.388Z" transform="translate(-291.66 -240.354)"/>
    <path id="Path_459" data-name="Path 459" d="M408.842,336l-1.263-2.189h0a15.4,15.4,0,0,0-3.764,3.764L406,338.835h0A12.212,12.212,0,0,1,408.842,336Z" transform="translate(-256.118 -256.097)"/>
    <path id="Path_460" data-name="Path 460" d="M385.44,380.429h2.5a12.191,12.191,0,0,1,1.051-3.877l-2.164-1.263h0a14.851,14.851,0,0,0-1.388,5.14Z" transform="translate(-240.37 -291.649)"/>
    <path id="Path_461" data-name="Path 461" d="M307.5,385a1.251,1.251,0,0,0-1.251,1.251v2.5A1.251,1.251,0,0,0,307.5,390h7.5a18.388,18.388,0,0,1,.2-2.5h-1.451V385h-2.5v2.5h-2.5V385Z" transform="translate(-172.5 -299.972)"/>
    <path id="Path_462" data-name="Path 462" d="M183.76,386.251A1.251,1.251,0,0,0,182.51,385h-1.251v2.5h-2.5V385h-2.5v2.5h-2.5V385h-2.5v2.5h-2.5V385H167.5a1.251,1.251,0,0,0-1.251,1.251v2.5A1.251,1.251,0,0,0,167.5,390H182.51a1.251,1.251,0,0,0,1.251-1.251Z" transform="translate(-52.511 -299.972)"/>
    <path id="Path_463" data-name="Path 463" d="M167.5,437.5a1.251,1.251,0,0,0-1.251,1.251v2.5A1.251,1.251,0,0,0,167.5,442.5H182.51a1.251,1.251,0,0,0,1.251-1.251v-2.5a1.251,1.251,0,0,0-1.251-1.251h-1.251V440h-2.5v-2.5h-2.5V440h-2.5v-2.5h-2.5V440h-2.5v-2.5Z" transform="translate(-52.511 -344.967)"/>
    <path id="Path_464" data-name="Path 464" d="M440.012,360.006a10.02,10.02,0,1,0-2.935,7.071A10,10,0,0,0,440.012,360.006ZM425,362.507h2.5a1.251,1.251,0,0,0,1.251,1.251h2.5a1.251,1.251,0,0,0,0-2.5h-2.5a3.752,3.752,0,1,1,0-7.5V352.5h2.5v1.251a3.752,3.752,0,0,1,3.752,3.752h-2.5a1.251,1.251,0,0,0-1.251-1.251h-2.5a1.251,1.251,0,0,0,0,2.5h2.5a3.752,3.752,0,1,1,0,7.5v1.251h-2.5V366.26A3.752,3.752,0,0,1,425,362.507Z" transform="translate(-269.99 -269.975)" fill="#f47008"/>
    <path id="Path_465" data-name="Path 465" d="M406,471.01l-2.189,1.263h0a15.4,15.4,0,0,0,3.764,3.765l1.263-2.189h0A12.214,12.214,0,0,1,406,471.01Z" transform="translate(-256.112 -373.687)"/>
    <path id="Path_466" data-name="Path 466" d="M240.76,35a3.241,3.241,0,0,0-2.339.975,5.768,5.768,0,0,1-7.817,0A3.253,3.253,0,0,0,228.253,35a3.2,3.2,0,0,0-2.339.975A6.949,6.949,0,0,1,224,37.162l6.216,10.344h8.58l6.216-10.356a6.426,6.426,0,0,1-1.9-1.176A3.253,3.253,0,0,0,240.76,35Z" transform="translate(-102.007)"/>
    <path id="Path_467" data-name="Path 467" d="M107.7,217.525h3.765a3.748,3.748,0,0,1-.225-1.251v-2.5a3.718,3.718,0,0,1,.975-2.5,3.719,3.719,0,0,1-.975-2.5v-2.5a3.718,3.718,0,0,1,.975-2.5,3.718,3.718,0,0,1-.975-2.5v-2.5a3.718,3.718,0,0,1,.975-2.5,3.718,3.718,0,0,1-.975-2.5v-2.5a3.763,3.763,0,0,1,3.752-3.752H130a3.763,3.763,0,0,1,3.752,3.752v2.5a3.653,3.653,0,0,1-.4,1.651,3.653,3.653,0,0,1,1.651-.4H150.01a3.415,3.415,0,0,1,.863.113,17.305,17.305,0,0,1,5.39-2.2V191.26A16.275,16.275,0,0,0,140,175h-1.926A7.478,7.478,0,0,1,140,180v1.251h-2.5V180a5,5,0,1,0-10.006,0v1.251H125V180a7.478,7.478,0,0,1,1.926-5H125a16.275,16.275,0,0,0-16.26,16.26v16.734a6.254,6.254,0,0,1-2.7,5,2.5,2.5,0,0,0-1.051,2.164,2.661,2.661,0,0,0,2.714,2.364Z" transform="translate(0 -119.99)"/>
    <path id="Path_468" data-name="Path 468" d="M265.007,142.5a1.251,1.251,0,0,0,0-2.5H255a1.251,1.251,0,1,0,0,2.5Z" transform="translate(-127.504 -89.993)"/>
    <path id="Path_469" data-name="Path 469" d="M450.429,503.261v-2.5a12.192,12.192,0,0,1-3.877-1.051l-1.263,2.164h0a14.851,14.851,0,0,0,5.14,1.388Z" transform="translate(-291.664 -398.284)"/>
    <path id="Path_470" data-name="Path 470" d="M543.856,338.842l2.189-1.263h0a15.4,15.4,0,0,0-3.765-3.765L541.016,336a12.215,12.215,0,0,1,2.839,2.839Z" transform="translate(-373.708 -256.103)"/>
    <path id="Path_471" data-name="Path 471" d="M498.75,503.26a14.853,14.853,0,0,0,5.14-1.388l-1.263-2.164a12.191,12.191,0,0,1-3.877,1.051Z" transform="translate(-337.483 -398.283)"/>
    <path id="Path_472" data-name="Path 472" d="M569.71,376.547a12.192,12.192,0,0,1,1.051,3.877h2.5a14.849,14.849,0,0,0-1.388-5.14Z" transform="translate(-398.3 -291.645)"/>
    <path id="Path_473" data-name="Path 473" d="M543.856,471.01a12.214,12.214,0,0,1-2.839,2.839l1.263,2.189h0a15.4,15.4,0,0,0,3.764-3.765Z" transform="translate(-373.709 -373.687)"/>
    <path id="Path_474" data-name="Path 474" d="M573.261,428.75h-2.5a12.191,12.191,0,0,1-1.051,3.877l2.164,1.263h0a14.854,14.854,0,0,0,1.388-5.14Z" transform="translate(-398.299 -337.468)"/>
    <path id="Path_475" data-name="Path 475" d="M388.991,432.632a12.19,12.19,0,0,1-1.051-3.877h-2.5a14.852,14.852,0,0,0,1.388,5.14Z" transform="translate(-240.369 -337.472)"/>
    <path id="Path_476" data-name="Path 476" d="M316.721,442.5a17.252,17.252,0,0,1-.975-2.5h-1.989v-2.5h-2.5V440h-2.5v-2.5H307.5a1.251,1.251,0,0,0-1.251,1.251v2.5A1.251,1.251,0,0,0,307.5,442.5Z" transform="translate(-172.501 -344.967)"/>
    <path id="Path_477" data-name="Path 477" d="M183.76,281.251A1.251,1.251,0,0,0,182.51,280h-1.251v2.5h-2.5V280h-2.5v2.5h-2.5V280h-2.5v2.5h-2.5V280H167.5a1.251,1.251,0,0,0-1.251,1.251v2.5A1.251,1.251,0,0,0,167.5,285H182.51a1.251,1.251,0,0,0,1.251-1.251Z" transform="translate(-52.511 -209.981)"/>
    <path id="Path_478" data-name="Path 478" d="M318.757,334.216V332.5h-2.5V335h-2.5v-2.5h-2.5V335h-2.5v-2.5H307.5a1.251,1.251,0,0,0-1.251,1.251v2.5A1.251,1.251,0,0,0,307.5,337.5h9.218A17.409,17.409,0,0,1,318.757,334.216Z" transform="translate(-172.5 -254.978)"/>
    <path id="Path_479" data-name="Path 479" d="M183.76,333.751a1.251,1.251,0,0,0-1.251-1.251h-1.251V335h-2.5v-2.5h-2.5V335h-2.5v-2.5h-2.5V335h-2.5v-2.5H167.5a1.251,1.251,0,0,0-1.251,1.251v2.5A1.251,1.251,0,0,0,167.5,337.5H182.51a1.251,1.251,0,0,0,1.251-1.251Z" transform="translate(-52.511 -254.976)"/>
    <path id="Path_480" data-name="Path 480" d="M498.75,315.44v2.5a12.191,12.191,0,0,1,3.877,1.051l1.263-2.164h0a14.852,14.852,0,0,0-5.14-1.388Z" transform="translate(-337.483 -240.355)"/>
  </g>
</svg>
