<svg xmlns="http://www.w3.org/2000/svg" width="40.368" height="24.221" viewBox="0 0 40.368 24.221">
  <g id="air-ticket-icon" transform="translate(-87.5 -122.5)">
    <path id="Path_668" data-name="Path 668" d="M125.85,146.721H89.518A2.021,2.021,0,0,1,87.5,144.7V124.518a2.021,2.021,0,0,1,2.018-2.018H125.85a2.021,2.021,0,0,1,2.018,2.018V144.7A2.021,2.021,0,0,1,125.85,146.721ZM89.518,123.846a.674.674,0,0,0-.673.673V144.7a.674.674,0,0,0,.673.673H125.85a.674.674,0,0,0,.673-.673V124.518a.674.674,0,0,0-.673-.673Z" fill="#f47008"/>
    <path id="Path_669" data-name="Path 669" d="M367.5,131.25h1.346v2.018H367.5Z" transform="translate(-258.47 -8.077)" fill="#f47008"/>
    <path id="Path_670" data-name="Path 670" d="M367.5,183.75h1.346V185.1H367.5Z" transform="translate(-258.47 -56.54)"/>
    <path id="Path_671" data-name="Path 671" d="M367.5,227.5h1.346v1.346H367.5Z" transform="translate(-258.47 -96.926)"/>
    <path id="Path_672" data-name="Path 672" d="M367.5,271.25h1.346V272.6H367.5Z" transform="translate(-258.47 -137.312)"/>
    <path id="Path_673" data-name="Path 673" d="M367.5,315h1.346v1.346H367.5Z" transform="translate(-258.47 -177.698)"/>
    <path id="Path_674" data-name="Path 674" d="M367.5,358.75h1.346V360.1H367.5Z" transform="translate(-258.47 -218.084)"/>
    <path id="Path_675" data-name="Path 675" d="M367.5,402.5h1.346v2.018H367.5Z" transform="translate(-258.47 -258.47)" fill="#f47008"/>
    <path id="Path_676" data-name="Path 676" d="M406.445,171.17a.675.675,0,0,1-.671-.621l-.117-1.523-1.01-1.01-1.523-.117a.673.673,0,0,1-.424-1.146l1.634-1.634a.672.672,0,0,1,.511-.2l1.253.067,2.027-2.028-3.663-1.57a.672.672,0,0,1-.211-1.093l1.226-1.226a.669.669,0,0,1,.688-.162l4.508,1.5,2.166-2.166a1.861,1.861,0,0,1,2.57,0,1.824,1.824,0,0,1,.016,2.585L413.261,163l1.5,4.508a.672.672,0,0,1-.163.688l-1.226,1.226a.672.672,0,0,1-1.094-.211l-1.57-3.663-2.027,2.028.066,1.253a.671.671,0,0,1-.2.511l-1.634,1.634a.668.668,0,0,1-.475.2Zm-1.758-4.5.311.023a.674.674,0,0,1,.424.2l1.362,1.362a.676.676,0,0,1,.2.424l.024.313.388-.388-.066-1.253a.671.671,0,0,1,.2-.511l2.942-2.941a.672.672,0,0,1,1.094.211l1.57,3.662.229-.229-1.5-4.508a.672.672,0,0,1,.163-.688l2.46-2.46a.483.483,0,0,0-.683-.682l-2.46,2.46a.67.67,0,0,1-.688.162l-4.508-1.5-.229.229,3.663,1.57a.672.672,0,0,1,.211,1.093l-2.942,2.941a.654.654,0,0,1-.511.2l-1.253-.067Z" transform="translate(-290.783 -32.522)"/>
    <path id="Path_677" data-name="Path 677" d="M533.75,350h2.691v1.346H533.75Z" transform="translate(-411.937 -210.007)"/>
    <path id="Path_678" data-name="Path 678" d="M498.75,350H500.1v1.346H498.75Z" transform="translate(-379.628 -210.007)"/>
    <path id="Path_679" data-name="Path 679" d="M411.25,350h5.382v1.346H411.25Z" transform="translate(-298.856 -210.007)"/>
    <path id="Path_680" data-name="Path 680" d="M411.25,385h12.11v1.346H411.25Z" transform="translate(-298.856 -242.316)"/>
    <path id="Path_681" data-name="Path 681" d="M131.25,271.25H147.4V272.6H131.25Z" transform="translate(-40.386 -137.312)"/>
    <path id="Path_682" data-name="Path 682" d="M131.25,323.75H147.4V325.1H131.25Z" transform="translate(-40.386 -185.776)"/>
    <path id="Path_683" data-name="Path 683" d="M131.25,376.25H147.4V377.6H131.25Z" transform="translate(-40.386 -234.239)"/>
    <path id="Path_684" data-name="Path 684" d="M140,157.5h1.346v6.728H140Z" transform="translate(-48.463 -32.309)"/>
    <path id="Path_685" data-name="Path 685" d="M175,157.5h2.691v6.728H175Z" transform="translate(-80.772 -32.309)"/>
    <path id="Path_686" data-name="Path 686" d="M262.5,157.5h2.691v6.728H262.5Z" transform="translate(-161.544 -32.309)"/>
    <path id="Path_687" data-name="Path 687" d="M227.5,157.5h1.346v6.728H227.5Z" transform="translate(-129.235 -32.309)"/>
    <path id="Path_688" data-name="Path 688" d="M315,157.5h1.346v6.728H315Z" transform="translate(-210.007 -32.309)"/>
  </g>
</svg>
