<svg xmlns="http://www.w3.org/2000/svg" width="69.265" height="68.693" viewBox="0 0 69.265 68.693">
  <g id="amazing-deals" transform="translate(-87.501 -8.744)">
    <path id="Path_452" data-name="Path 452" d="M97.8,430.344l6.369-7.431-2.686.173-1.6-6.278-6.279-1.595.028-.435L87.5,420.04l8.014,2.29Z" transform="translate(0 -352.906)"/>
    <path id="Path_453" data-name="Path 453" d="M108.789,45.944l-2.2,5.515,5.02,3.17-.38,5.925,5.755,1.463,1.462,5.755,5.926-.379,3.17,5.022,5.516-2.2L137.629,74l4.57-3.789,5.515,2.2.869-1.377a13.635,13.635,0,0,1,.054-13.618,19.473,19.473,0,1,1,5.037-5.037,13.629,13.629,0,0,1,13.618-.053l1.376-.869-2.2-5.516,3.79-4.571-3.789-4.57,2.2-5.515-5.02-3.17.38-5.926-5.755-1.462-1.462-5.755-5.926.379-3.171-5.021-5.516,2.2-4.57-3.789-4.57,3.789-5.515-2.2-3.17,5.02-5.926-.38-1.462,5.755-5.755,1.462.379,5.926-5.021,3.171,2.2,5.516L105,41.373Z" transform="translate(-15.21)"/>
    <path id="Path_454" data-name="Path 454" d="M295.566,180.046a2.29,2.29,0,0,0-3.238,0L276.3,196.075a2.289,2.289,0,1,0,3.237,3.238l16.028-16.028A2.288,2.288,0,0,0,295.566,180.046Z" transform="translate(-163.514 -148.306)" fill="#f47008"/>
    <path id="Path_455" data-name="Path 455" d="M464.777,357.069a11.449,11.449,0,1,0-11.449,11.449A11.448,11.448,0,0,0,464.777,357.069Zm-12.594-8.014h2.29v7.54l4.244,4.244-1.619,1.619-4.915-4.915Z" transform="translate(-308.011 -292.798)"/>
    <path id="Path_456" data-name="Path 456" d="M288.96,190.41a2.29,2.29,0,1,1-2.29-2.29,2.29,2.29,0,0,1,2.29,2.29" transform="translate(-171.119 -155.906)" fill="#f47008"/>
    <path id="Path_457" data-name="Path 457" d="M393.959,295.41a2.29,2.29,0,1,1-2.29-2.29,2.29,2.29,0,0,1,2.29,2.29" transform="translate(-262.38 -247.167)" fill="#f47008"/>
  </g>
</svg>
