<svg xmlns="http://www.w3.org/2000/svg" width="33" height="16" viewBox="0 0 33 16">
  <g id="arrow-sprite-hover" transform="translate(-1361 -3074)">
    <path id="arrow-left-circle-fill" d="M8,0a8,8,0,1,0,8,8A8,8,0,0,0,8,0Zm3.5,7.5a.5.5,0,0,1,0,1H5.707l2.147,2.146a.5.5,0,1,1-.708.708l-3-3a.5.5,0,0,1,0-.708l3-3a.5.5,0,0,1,.708.708L5.707,7.5Z" transform="translate(1361 3074)" fill="#fff"/>
    <path id="arrow-left-circle-fill-2" data-name="arrow-left-circle-fill" d="M8,0a8,8,0,1,0,8,8A8,8,0,0,0,8,0Zm3.5,7.5a.5.5,0,0,1,0,1H5.707l2.147,2.146a.5.5,0,1,1-.708.708l-3-3a.5.5,0,0,1,0-.708l3-3a.5.5,0,0,1,.708.708L5.707,7.5Z" transform="translate(1394 3090) rotate(180)" fill="#fff"/>
  </g>
</svg>
