<svg xmlns="http://www.w3.org/2000/svg" width="98.597" height="81.345" viewBox="0 0 98.597 81.345">
  <g id="best-services" transform="translate(-79.494 -79.06)">
    <path id="Path_435" data-name="Path 435" d="M159.349,412.4c.644,2.366-2.715,5.341-7.5,6.644s-9.191.441-9.835-1.926,2.715-5.342,7.5-6.645,9.191-.441,9.835,1.926" transform="translate(-51.059 -270.519)"/>
    <path id="Path_436" data-name="Path 436" d="M102.186,350.092c3.8,1.249,6.384,3.785,5.766,5.665s-4.2,2.39-8,1.141-6.384-3.786-5.766-5.665,4.2-2.39,8-1.14" transform="translate(-11.938 -221.078)"/>
    <path id="Path_437" data-name="Path 437" d="M87.813,267.727c3.466,2,5.473,5.012,4.484,6.725s-4.6,1.479-8.067-.521-5.473-5.012-4.484-6.725,4.6-1.48,8.067.521" transform="translate(0 -152.92)"/>
    <path id="Path_438" data-name="Path 438" d="M94.117,202.164c2.725,2.362,3.987,5.37,2.819,6.717s-4.323.524-7.049-1.839-3.987-5.37-2.82-6.717,4.324-.524,7.049,1.839" transform="translate(-5.837 -98.636)"/>
    <path id="Path_439" data-name="Path 439" d="M120.549,130.813c.96,3.06.511,5.924-1,6.4s-3.516-1.622-4.476-4.682-.511-5.924,1-6.4,3.516,1.622,4.475,4.682" transform="translate(-28.681 -38.439)"/>
    <path id="Path_440" data-name="Path 440" d="M161.455,84.217c.155,2.922-.89,5.352-2.334,5.429s-2.74-2.23-2.9-5.151.89-5.352,2.334-5.429,2.741,2.23,2.9,5.151" transform="translate(-62.735 -0.003)"/>
    <path id="Path_441" data-name="Path 441" d="M471.985,410.475c4.788,1.3,8.147,4.278,7.5,6.645s-5.048,3.229-9.836,1.926-8.147-4.278-7.5-6.644,5.047-3.229,9.835-1.926" transform="translate(-312.853 -270.519)"/>
    <path id="Path_442" data-name="Path 442" d="M543.214,351.223c.618,1.879-1.963,4.416-5.766,5.665s-7.385.738-8-1.141,1.963-4.416,5.766-5.665,7.385-.738,8,1.141" transform="translate(-367.876 -221.071)"/>
    <path id="Path_443" data-name="Path 443" d="M561.672,267.206c.99,1.714-1.019,4.724-4.484,6.725s-7.077,2.234-8.067.521,1.019-4.724,4.485-6.725,7.077-2.234,8.066-.521" transform="translate(-383.833 -152.919)"/>
    <path id="Path_444" data-name="Path 444" d="M564.745,200.326c1.168,1.347-.095,4.354-2.82,6.717s-5.881,3.186-7.049,1.839.095-4.355,2.82-6.717,5.881-3.186,7.049-1.839" transform="translate(-388.389 -98.636)"/>
    <path id="Path_445" data-name="Path 445" d="M554.81,126.13c1.512.474,1.961,3.339,1,6.4s-2.963,5.156-4.476,4.682-1.961-3.339-1-6.4,2.963-5.156,4.476-4.682" transform="translate(-384.618 -38.437)"/>
    <path id="Path_446" data-name="Path 446" d="M517.837,79.062c1.444.077,2.489,2.507,2.334,5.429s-1.452,5.228-2.9,5.151-2.489-2.507-2.334-5.429,1.452-5.228,2.9-5.151" transform="translate(-356.075)"/>
    <path id="Path_447" data-name="Path 447" d="M257.852,442.28h26.51a4.649,4.649,0,0,1,4.328,4.328V453.1a4.328,4.328,0,0,1-4.328,4.328h-26.51a4.649,4.649,0,0,1-4.328-4.328v-6.495A4.328,4.328,0,0,1,257.852,442.28Z" transform="translate(-142.313 -297.025)"/>
    <path id="Path_448" data-name="Path 448" d="M229.432,166.869l14.6-7.672,14.6,7.672-2.791-16.253,11.81-11.508-16.32-2.372-7.3-14.787-7.3,14.787-16.32,2.372,11.81,11.508Z" transform="translate(-115.237 -35.073)" fill="#f47008"/>
  </g>
</svg>
