<svg xmlns="http://www.w3.org/2000/svg" width="35.732" height="38.197" viewBox="0 0 35.732 38.197">
  <g id="booking-detail-icon" transform="translate(-96.251 -8.751)">
    <path id="Path_656" data-name="Path 656" d="M128.9,16.143h-.616V10.6a1.848,1.848,0,0,0-1.848-1.848H101.8A1.848,1.848,0,0,0,99.947,10.6v5.545h-.616a3.084,3.084,0,0,0-3.08,3.08v17.25a3.084,3.084,0,0,0,3.08,3.08h10.816l-1.4,3.742a3.076,3.076,0,0,0-2.636,3.035.616.616,0,0,0,.616.616H121.51a.616.616,0,0,0,.616-.616A3.076,3.076,0,0,0,119.49,43.3l-1.4-3.742H128.9a3.084,3.084,0,0,0,3.08-3.08V19.224a3.084,3.084,0,0,0-3.08-3.08ZM101.18,14.911h25.875v14.17a.616.616,0,0,1-.616.616H101.8a.616.616,0,0,1-.616-.616Zm.616-4.929h24.643a.616.616,0,0,1,.616.616v3.08H101.18V10.6A.616.616,0,0,1,101.8,9.983Zm-2.464,7.393h.616V29.081a1.848,1.848,0,0,0,1.848,1.848h24.643a1.848,1.848,0,0,0,1.848-1.848V17.376h.616a1.848,1.848,0,0,1,1.848,1.848v15.4H97.483v-15.4a1.848,1.848,0,0,1,1.848-1.848Zm21.457,28.34H107.445a1.852,1.852,0,0,1,1.743-1.232h9.857a1.852,1.852,0,0,1,1.743,1.232Zm-2.632-2.464h-8.079l1.386-3.7h5.307ZM128.9,38.322H99.331a1.848,1.848,0,0,1-1.848-1.848v-.616h33.268v.616a1.848,1.848,0,0,1-1.848,1.848Z" fill="#f47008"/>
    <path id="Path_657" data-name="Path 657" d="M189.658,141.724a2.118,2.118,0,0,0,1.487.616,2.09,2.09,0,0,0,1.487-.616l5.215-5.215a2.358,2.358,0,0,0-3.335-3.335l-.9.9-2.645-2.645h0a.616.616,0,0,0-.436-.18h-3.08a.616.616,0,0,0-.436,1.052l4.185,4.185-.669.669-2.029-2.029h0a.616.616,0,0,0-.436-.18h-3.7a.616.616,0,0,0-.436,1.052Zm-.722-9.241h1.338l2.464,2.464-.669.669Zm-1.126,3.7,2.284,2.284a.617.617,0,0,0,.871,0l4.418-4.418h0a1.127,1.127,0,0,1,1.593,1.593l-5.215,5.214a.9.9,0,0,1-1.232,0l-4.674-4.673Z" transform="translate(-81.341 -113.875)"/>
    <path id="Path_658" data-name="Path 658" d="M411.866,117.446h6.161a.616.616,0,0,0,.616-.616v-2.464a.616.616,0,0,0-.616-.616h-6.161a.616.616,0,0,0-.616.616v2.464a.616.616,0,0,0,.616.616Zm.616-2.464h4.929v1.232h-4.929Z" transform="translate(-292.82 -97.607)"/>
    <path id="Path_659" data-name="Path 659" d="M411.25,183.75h7.393v1.232H411.25Z" transform="translate(-292.82 -162.678)"/>
    <path id="Path_660" data-name="Path 660" d="M411.25,218.75h7.393v1.232H411.25Z" transform="translate(-292.82 -195.214)"/>
    <path id="Path_661" data-name="Path 661" d="M186.214,36.232A1.232,1.232,0,1,1,184.982,35a1.232,1.232,0,0,1,1.232,1.232" transform="translate(-81.338 -24.401)"/>
    <path id="Path_662" data-name="Path 662" d="M256.214,36.232A1.232,1.232,0,1,1,254.982,35a1.232,1.232,0,0,1,1.232,1.232" transform="translate(-146.41 -24.401)"/>
    <path id="Path_663" data-name="Path 663" d="M411.25,253.75h3.08v1.232h-3.08Z" transform="translate(-292.82 -227.749)"/>
    <path id="Path_664" data-name="Path 664" d="M472.5,253.75h3.08v1.232H472.5Z" transform="translate(-349.758 -227.749)"/>
    <path id="Path_665" data-name="Path 665" d="M498.75,43.75h1.232v1.232H498.75Z" transform="translate(-374.16 -32.535)"/>
    <path id="Path_666" data-name="Path 666" d="M463.75,43.75h1.232v1.232H463.75Z" transform="translate(-341.624 -32.535)"/>
    <path id="Path_667" data-name="Path 667" d="M428.75,43.75h1.232v1.232H428.75Z" transform="translate(-309.088 -32.535)"/>
  </g>
</svg>
