<svg xmlns="http://www.w3.org/2000/svg" xmlns:xlink="http://www.w3.org/1999/xlink" width="70" height="70" viewBox="0 0 70 70">
  <defs>
    <clipPath id="clip-enquiry-icon">
      <rect width="70" height="70"/>
    </clipPath>
  </defs>
  <g id="enquiry-icon" clip-path="url(#clip-enquiry-icon)">
    <rect width="70" height="70" fill="#fff"/>
    <g id="Group_2" data-name="Group 2" transform="translate(-1.667 -8.234)">
      <g id="Group_1" data-name="Group 1" transform="translate(3.667 56.834)">
        <path id="Path_1" data-name="Path 1" d="M29.026,73.2a2.743,2.743,0,0,1-2.285-4.26c.774-1.17,1.223-2.026,1.252-2.083a2.744,2.744,0,0,1,4.883,2.507,28.588,28.588,0,0,1-1.565,2.61A2.729,2.729,0,0,1,29.026,73.2Z" transform="translate(-6.42 -63.303)" fill="#F47008"/>
        <path id="Path_2" data-name="Path 2" d="M16.067,82.5a14.668,14.668,0,0,1-4.417-.6A2.745,2.745,0,1,1,13.3,76.661a7.014,7.014,0,0,0,4.565.017,2.745,2.745,0,0,1,1.869,5.162,10.775,10.775,0,0,1-3.664.659Z" transform="translate(-4.405 -64.661)" fill="#F47008"/>
        <path id="Path_3" data-name="Path 3" d="M6.491,71.255A2.749,2.749,0,0,1,3.753,68.69q-.087-1.37-.086-2.926a2.746,2.746,0,1,1,5.492,0q0,1.365.078,2.569a2.749,2.749,0,0,1-2.561,2.918C6.61,71.251,6.553,71.255,6.491,71.255Z" transform="translate(-3.667 -63.017)" fill="#F47008"/>
      </g>
      <path id="Path_4" data-name="Path 4" d="M27.887,57.767v10.1a2.057,2.057,0,0,0,3.582,1.383L38.3,61.731Z" transform="translate(-2.949 -5.544)" fill="#F47008"/>
      <path id="Path_5" data-name="Path 5" d="M68.877,12.785a2.059,2.059,0,0,0-2.145-.412L4.98,36.386a2.06,2.06,0,0,0,.012,3.845l17.023,6.476,37-23.722L28.491,49.173l25.215,9.588a2.15,2.15,0,0,0,.733.135,2.035,2.035,0,0,0,.905-.21,2.059,2.059,0,0,0,1.062-1.247L69.445,14.9a2.063,2.063,0,0,0-.568-2.116Z" transform="translate(0)" fill="#F47008"/>
    </g>
  </g>
</svg>
