<svg xmlns="http://www.w3.org/2000/svg" width="38.16" height="38.16" viewBox="0 0 38.16 38.16">
  <g id="gst-icon" transform="translate(-81.668 -11.666)">
    <path id="Path_556" data-name="Path 556" d="M115.68,49.826H85.816a4.154,4.154,0,0,1-4.148-4.148V15.814a4.154,4.154,0,0,1,4.148-4.148H115.68a4.154,4.154,0,0,1,4.148,4.148V45.678A4.154,4.154,0,0,1,115.68,49.826Zm-29.865-36.5a2.492,2.492,0,0,0-2.489,2.489V45.679a2.492,2.492,0,0,0,2.489,2.489H115.68a2.492,2.492,0,0,0,2.489-2.489V15.814a2.492,2.492,0,0,0-2.489-2.489Z" fill="#686868"/>
    <path id="Path_557" data-name="Path 557" d="M210.219,165.2h-2.228a1.351,1.351,0,0,0,0,2.7h2.228a1.351,1.351,0,0,0,0-2.7Z" transform="translate(-120.84 -129.752)" fill="#686868"/>
    <path id="Path_559" data-name="Path 559" d="M210.219,165.2h-2.228a1.351,1.351,0,0,0,0,2.7h2.228a1.351,1.351,0,0,0,0-2.7Z" transform="translate(-120.84 -124.837)" fill="#686868"/>
    <path id="Path_558" data-name="Path 558" d="M310.174,165.2H296.98a1.351,1.351,0,0,0,0,2.7h13.194a1.351,1.351,0,1,0,0-2.7Z" transform="translate(-202.676 -129.752)" fill="#686868"/>
    <path id="Path_560" data-name="Path 560" d="M307.2,165.2H296.7a1.059,1.059,0,0,0-.931.675,1.656,1.656,0,0,0,0,1.35,1.059,1.059,0,0,0,.931.675h10.5a1.059,1.059,0,0,0,.931-.675,1.656,1.656,0,0,0,0-1.35A1.059,1.059,0,0,0,307.2,165.2Z" transform="translate(-202.676 -124.837)" fill="#686868"/>
    <text id="GST" transform="translate(84.668 29.246)" fill="#686868" font-size="16" font-family="NunitoSans-ExtraBold, Nunito Sans" font-weight="800"><tspan x="0" y="0">GST</tspan></text>
  </g>
</svg>
