<svg xmlns="http://www.w3.org/2000/svg" width="29.486" height="40.719" viewBox="0 0 29.486 40.719">
  <g id="insurance-icon-passport" transform="translate(-166.25 -26.25)">
    <path id="Path_567" data-name="Path 567" d="M201.952,71.781a.7.7,0,0,1-.7-.7V61.952a.7.7,0,0,1,.7-.7h3.51a.7.7,0,1,1,0,1.4h-2.808v8.425a.7.7,0,0,1-.7.7Z" transform="translate(-32.192 -32.192)"/>
    <path id="Path_568" data-name="Path 568" d="M281.4,61.952a.7.7,0,1,1-.7-.7.7.7,0,0,1,.7.7" transform="translate(-104.623 -32.192)"/>
    <path id="Path_569" data-name="Path 569" d="M190.822,26.25h-23.87a.7.7,0,0,0-.7.7V66.267a.7.7,0,0,0,.7.7h23.87a4.92,4.92,0,0,0,4.914-4.914V31.164a4.92,4.92,0,0,0-4.914-4.914Zm3.51,35.8a3.514,3.514,0,0,1-3.51,3.51H167.654V27.654h23.168a3.514,3.514,0,0,1,3.51,3.51Z" transform="translate(0 0)"/>
    <path id="Path_570" data-name="Path 570" d="M245.377,131.25a9.136,9.136,0,1,0,6.451,2.676A9.127,9.127,0,0,0,245.377,131.25Zm6.87,5.616h-2.96a11.266,11.266,0,0,0-1.3-3.749A7.753,7.753,0,0,1,252.247,136.866Zm-6.87,11.233c-.941,0-1.958-1.667-2.47-4.212h4.941C247.334,146.432,246.318,148.1,245.377,148.1Zm-2.689-5.616a18.6,18.6,0,0,1,0-4.212h5.378a18.6,18.6,0,0,1,0,4.212Zm-5.034-2.106a7.687,7.687,0,0,1,.3-2.106h3.318a20.7,20.7,0,0,0,0,4.212h-3.318A7.688,7.688,0,0,1,237.654,140.377Zm7.723-7.723c.941,0,1.958,1.667,2.47,4.212h-4.941C243.419,134.321,244.436,132.654,245.377,132.654Zm4.1,5.616H252.8a7.562,7.562,0,0,1,0,4.212h-3.318A20.7,20.7,0,0,0,249.482,138.271Zm-6.712-5.153a11.264,11.264,0,0,0-1.3,3.749h-2.96A7.752,7.752,0,0,1,242.769,133.117Zm-4.262,10.77h2.96a11.266,11.266,0,0,0,1.3,3.749A7.753,7.753,0,0,1,238.507,143.887Zm9.477,3.749a11.264,11.264,0,0,0,1.3-3.749h2.96A7.753,7.753,0,0,1,247.984,147.636Z" transform="translate(-64.384 -96.575)" fill="#f47008"/>
    <path id="Path_571" data-name="Path 571" d="M268.493,393.75H254.452a.7.7,0,1,0,0,1.4h14.041a.7.7,0,1,0,0-1.4Z" transform="translate(-80.479 -338.014)"/>
    <path id="Path_572" data-name="Path 572" d="M283.185,428.75H271.952a.7.7,0,0,0,0,1.4h11.233a.7.7,0,1,0,0-1.4Z" transform="translate(-96.575 -370.205)"/>
  </g>
</svg>
