<svg xmlns="http://www.w3.org/2000/svg" width="49.947" height="49.948" viewBox="0 0 49.947 49.948">
  <g id="insurance-icon-trip-cancel" transform="translate(-77.096 -26.248)">
    <path id="Path_592" data-name="Path 592" d="M145.847,52.407l-5.6-4.2a.861.861,0,0,0-1.034,1.377l5.253,3.94v1.911l-19.824-4.956.221-11.657,11.593,8.695a.861.861,0,0,0,1.034-1.378L124.906,36.7l.125-6.562a3.815,3.815,0,1,0-7.628,0l.125,6.564-20.94,15.7a.86.86,0,0,0-.344.689v3.445a.861.861,0,0,0,1.07.835l20.508-5.127.246,12.961-6.5,6.5a.86.86,0,0,0-.252.609v3.014a.862.862,0,0,0,1.134.817l8.77-2.923,8.77,2.923a.862.862,0,0,0,1.134-.817V72.32a.861.861,0,0,0-.252-.609l-6.5-6.5.246-12.961,20.508,5.127a.843.843,0,0,0,.209.026.862.862,0,0,0,.861-.861V53.1a.86.86,0,0,0-.344-.689ZM129.4,72.677V74.14L121.491,71.5a.864.864,0,0,0-.545,0l-7.908,2.637V72.677l6.509-6.509a.86.86,0,0,0,.252-.625L119.445,46.9a.878.878,0,0,0-.878-.845.862.862,0,0,0-.845.878l.067,3.55L97.967,55.438V53.527l19.6-14.7.088,4.663a.874.874,0,0,0,.878.845.862.862,0,0,0,.845-.878l-.253-13.35a2.077,2.077,0,0,1,.6-1.507,2.142,2.142,0,0,1,2.989,0,2.077,2.077,0,0,1,.6,1.508l-.672,35.437a.86.86,0,0,0,.252.625Z" transform="translate(-19.147 0)"/>
  </g>
</svg>
