<svg xmlns="http://www.w3.org/2000/svg" width="51.102" height="45.064" viewBox="0 0 51.102 45.064">
  <g id="insurance-icon-emergency" transform="translate(-93.687 -54.103)">
    <path id="Path_562" data-name="Path 562" d="M144.79,160.791a1.118,1.118,0,0,0-.368-.826l-4.617-4.176-7.073-9.764a1.116,1.116,0,0,0-.9-.447h-4.092L126.3,140.8a1.116,1.116,0,0,0-1.072-.8h-4.2a1.116,1.116,0,0,0-1.116.9L119,145.578H97.819a3.907,3.907,0,0,0-3.908,3.858l-.223,18.07h0a3.908,3.908,0,0,0,3.908,3.958h1.971a6.035,6.035,0,0,0,11.9,0h12.795a6.035,6.035,0,0,0,11.9,0h4.7a3.907,3.907,0,0,0,3.908-3.908Zm-8.005-5.371H125.469a1.116,1.116,0,0,1-1.116-1.116v-6.493h6.905Zm-14.839-13.192H124.4l.977,3.35h-4.1Zm-16.43,32.011a3.813,3.813,0,1,1,2.69-1.117,3.806,3.806,0,0,1-2.69,1.117Zm24.72,0a3.813,3.813,0,1,1,2.69-1.117,3.807,3.807,0,0,1-2.69,1.117Zm12.326-6.7a1.675,1.675,0,0,1-1.675,1.675h-4.734a6.04,6.04,0,0,0-11.841,0h-12.89a6.04,6.04,0,0,0-11.841,0H97.595a1.675,1.675,0,0,1-1.674-1.675l.223-18.07a1.675,1.675,0,0,1,1.675-1.675h24.3V154.3a3.35,3.35,0,0,0,3.35,3.35h13.074l4.019,3.634Z" transform="translate(0 -77.33)"/>
    <path id="Path_563" data-name="Path 563" d="M220.155,262.19h-2.233v3.444h-3.444v2.233h3.444v3.444h2.233v-3.444h3.439v-2.233h-3.439Z" transform="translate(-108.748 -187.343)" fill="#f47008"/>
    <path id="Path_564" data-name="Path 564" d="M380.235,58.848V55.219a1.116,1.116,0,0,0-2.233,0v3.628a1.116,1.116,0,1,0,2.233,0Z" transform="translate(-255.972 0)" fill="#f47008"/>
    <path id="Path_565" data-name="Path 565" d="M441.638,90.391l2.73-2.73h0a1.117,1.117,0,0,0-1.58-1.58l-2.73,2.73h0a1.117,1.117,0,0,0,1.58,1.58Z" transform="translate(-311.547 -28.496)" fill="#f47008"/>
    <path id="Path_566" data-name="Path 566" d="M292.382,90.718a1.116,1.116,0,0,0,.787-1.9l-2.724-2.73a1.117,1.117,0,1,0-1.58,1.58l2.73,2.73h0A1.116,1.116,0,0,0,292.382,90.718Z" transform="translate(-175.426 -28.499)" fill="#f47008"/>
  </g>
</svg>
