<svg xmlns="http://www.w3.org/2000/svg" width="41.653" height="41.653" viewBox="0 0 41.653 41.653">
  <g id="insurance-icon-loss-baggage" transform="translate(-87.5 -17.5)">
    <path id="Path_573" data-name="Path 573" d="M127.071,179.459v-1.683h-1.388v1.388h-2.777v-2.777h1.388V175h-9.719v1.388h1.388v2.777h-2.777a3.475,3.475,0,0,0-3.471,3.471v.694h-2.777v-.694a3.475,3.475,0,0,0-3.471-3.471H97.913a3.475,3.475,0,0,0-3.471,3.471v.694H90.971A3.475,3.475,0,0,0,87.5,186.8v11.108a3.475,3.475,0,0,0,3.471,3.471v.694a2.085,2.085,0,0,0,2.083,2.083h1.388a2.085,2.085,0,0,0,2.083-2.083v-.694h8.331v.694a2.085,2.085,0,0,0,2.083,2.083h1.388a2.085,2.085,0,0,0,2.083-2.083v-.694a3.457,3.457,0,0,0,2.762-1.391c.006,0,.01,0,.015,0h1.388v.694a2.083,2.083,0,0,0,4.165,0v-.694h2.083v.694a2.083,2.083,0,1,0,4.165,0v-.694h.694a3.475,3.475,0,0,0,3.471-3.471V182.635a3.473,3.473,0,0,0-2.083-3.177Zm-9.719-3.071h4.165v2.777h-4.165Zm-6.248,6.248a2.085,2.085,0,0,1,2.083-2.083h12.5a2.085,2.085,0,0,1,2.083,2.083v3.471H113.811c-.012-.059-.037-.113-.052-.17a3.6,3.6,0,0,0-.128-.414c-.031-.076-.068-.148-.1-.222a3.5,3.5,0,0,0-.187-.344c-.045-.072-.095-.14-.144-.208a3.575,3.575,0,0,0-.242-.293c-.058-.063-.115-.123-.177-.181a3.5,3.5,0,0,0-.3-.246c-.065-.049-.129-.1-.2-.144a3.4,3.4,0,0,0-.368-.2c-.064-.031-.126-.068-.192-.1a3.455,3.455,0,0,0-.578-.18c-.012,0-.024-.008-.037-.011h0Zm2.777,4.86h13.884v4.165H113.88Zm-8.331,12.5H94.442V184.718h12.5v15.273Zm-9.719-17.356a2.085,2.085,0,0,1,2.083-2.083h5.554a2.085,2.085,0,0,1,2.083,2.083v.694H95.831Zm-6.942,15.273V186.8a2.085,2.085,0,0,1,2.083-2.083h2.083v15.273H90.971A2.085,2.085,0,0,1,88.888,197.908Zm6.248,4.165a.7.7,0,0,1-.694.694H93.054a.7.7,0,0,1-.694-.694v-.694h2.777Zm13.884,0a.7.7,0,0,1-.694.694h-1.388a.7.7,0,0,1-.694-.694v-.694h2.777Zm1.388-2.083h-2.083V184.718h2.083a2.085,2.085,0,0,1,2.083,2.083v11.108A2.085,2.085,0,0,1,110.409,199.991Zm6.942.694a.694.694,0,0,1-1.388,0v-.694h1.388Zm6.248,0a.694.694,0,0,1-1.388,0v-.694H123.6Zm2.083-2.083h-11.8v-5.554h13.884v3.471A2.085,2.085,0,0,1,125.682,198.6Z" transform="translate(0 -145.003)"/>
    <path id="Path_574" data-name="Path 574" d="M222.08,350.455a.719.719,0,0,0-1.111,0l-2.083,2.777a.693.693,0,0,0,0,.832l2.083,2.777a.694.694,0,0,0,1.111,0l2.083-2.777a.693.693,0,0,0,0-.832Zm-.555,4.813-1.215-1.62,1.215-1.62,1.215,1.62Z" transform="translate(-120.835 -306.297)"/>
    <path id="Path_575" data-name="Path 575" d="M293.61,17.5a3.475,3.475,0,0,0-3.471,3.471V22.36h-.694a.694.694,0,0,0-.694.694v8.331a.694.694,0,0,0,.694.694h8.331a.694.694,0,0,0,.694-.694V23.054a.694.694,0,0,0-.694-.694h-.694V20.971A3.475,3.475,0,0,0,293.61,17.5Zm-2.083,3.471a2.083,2.083,0,1,1,4.165,0V22.36h-4.165Zm5.554,9.719h-6.942V23.748h6.942Z" transform="translate(-185.283)" fill="#f47008"/>
    <path id="Path_576" data-name="Path 576" d="M325.833,113.75a2.083,2.083,0,1,0,2.083,2.083A2.085,2.085,0,0,0,325.833,113.75Zm0,2.777a.694.694,0,1,1,.694-.694A.7.7,0,0,1,325.833,116.527Z" transform="translate(-217.506 -88.614)" fill="#f47008"/>
    <path id="Path_577" data-name="Path 577" d="M140,175h1.388v1.388H140Z" transform="translate(-48.335 -145.004)" fill="#f47008"/>
    <path id="Path_578" data-name="Path 578" d="M140,140h1.388v1.388H140Z" transform="translate(-48.335 -112.781)" fill="#f47008"/>
    <path id="Path_579" data-name="Path 579" d="M140,105h1.388v1.388H140Z" transform="translate(-48.335 -80.558)" fill="#f47008"/>
    <path id="Path_580" data-name="Path 580" d="M175,105h1.388v1.388H175Z" transform="translate(-80.558 -80.558)" fill="#f47008"/>
    <path id="Path_581" data-name="Path 581" d="M210,105h1.388v1.388H210Z" transform="translate(-112.781 -80.558)" fill="#f47008"/>
    <path id="Path_582" data-name="Path 582" d="M245,105h1.388v1.388H245Z" transform="translate(-145.004 -80.558)" fill="#f47008"/>
    <path id="Path_583" data-name="Path 583" d="M428.75,105h1.388v1.388H428.75Z" transform="translate(-314.175 -80.558)" fill="#f47008"/>
    <path id="Path_584" data-name="Path 584" d="M140,210h1.388v1.388H140Z" transform="translate(-48.335 -177.227)" fill="#f47008"/>
    <path id="Path_585" data-name="Path 585" d="M463.75,105h1.388v1.388H463.75Z" transform="translate(-346.399 -80.558)" fill="#f47008"/>
    <path id="Path_586" data-name="Path 586" d="M498.75,105h1.388v1.388H498.75Z" transform="translate(-378.622 -80.558)" fill="#f47008"/>
    <path id="Path_587" data-name="Path 587" d="M533.75,105h1.388v1.388H533.75Z" transform="translate(-410.845 -80.558)" fill="#f47008"/>
    <path id="Path_588" data-name="Path 588" d="M568.75,105h1.388v1.388H568.75Z" transform="translate(-443.068 -80.558)" fill="#f47008"/>
    <path id="Path_589" data-name="Path 589" d="M568.75,140h1.388v1.388H568.75Z" transform="translate(-443.068 -112.781)" fill="#f47008"/>
    <path id="Path_590" data-name="Path 590" d="M568.75,175h1.388v1.388H568.75Z" transform="translate(-443.068 -145.004)" fill="#f47008"/>
    <path id="Path_591" data-name="Path 591" d="M140,245h1.388v1.388H140Z" transform="translate(-48.335 -209.45)" fill="#f47008"/>
  </g>
</svg>
