<svg xmlns="http://www.w3.org/2000/svg" xmlns:xlink="http://www.w3.org/1999/xlink" width="70" height="70" viewBox="0 0 70 70">
  <defs>
    <clipPath id="clip-office-hours">
      <rect width="70" height="70"/>
    </clipPath>
  </defs>
  <g id="office-hours" clip-path="url(#clip-office-hours)">
    <rect width="70" height="70" fill="#fff"/>
    <g id="Group_12" data-name="Group 12" transform="translate(-455.5 -254.363)">
      <path id="Path_18" data-name="Path 18" d="M496.642,277.237a16.642,16.642,0,1,0,16.642,16.642A16.69,16.69,0,0,0,496.642,277.237Zm6.213,18.639h-6.213a2.04,2.04,0,0,1-2.108-2.108v-8.321a2.108,2.108,0,0,1,4.216,0v6.213h4.216a2.04,2.04,0,0,1,2.108,2.108A2.07,2.07,0,0,1,502.854,295.876Z" transform="translate(10.783 8.087)" fill="#F47008"/>
      <g id="Group_11" data-name="Group 11" transform="translate(458.055 260.363)">
        <path id="Path_19" data-name="Path 19" d="M504.915,261.583a1.725,1.725,0,0,0-1.886-1.22H465.641a1.8,1.8,0,0,0-1.886,1.22l-5.88,13.312h52.7Z" transform="translate(-457.875 -260.363)" fill="#F47008"/>
        <path id="Path_20" data-name="Path 20" d="M458.925,282.413V299.72a2.04,2.04,0,0,0,2.108,2.108h14.534V282.413a13.313,13.313,0,0,1-8.321,2.663A14.049,14.049,0,0,1,458.925,282.413Zm10.983,5.435c.222-.222.444-.444.666-.444a1.9,1.9,0,0,1,2.33.444c.222.222.444.444.444.666a1.886,1.886,0,0,1,0,1.775c-.222.222-.222.444-.444.666s-.444.444-.666.444-.666.222-.888.222a1.789,1.789,0,0,1-1.442-.666c-.222-.222-.444-.444-.444-.666a1.332,1.332,0,0,1-.222-.888C469.354,288.624,469.465,288.182,469.908,287.848Z" transform="translate(-457.372 -249.796)" fill="#F47008"/>
      </g>
      <path id="Path_21" data-name="Path 21" d="M507.425,275.069a28.874,28.874,0,0,1,4.216.444v-2.55H457.5v2.106a10.347,10.347,0,0,0,10.429,10.43,10.453,10.453,0,0,0,8.321-4.216,10.453,10.453,0,0,0,8.321,4.216A10.158,10.158,0,0,0,491,283.17,20.492,20.492,0,0,1,507.425,275.069Z" transform="translate(0 6.039)" fill="#F47008"/>
      <path id="Path_22" data-name="Path 22" d="M479.274,290.715a26.1,26.1,0,0,1,1-6.657,14.987,14.987,0,0,1-3.106.445,13.455,13.455,0,0,1-4.216-.666v17.307h9.208A20.529,20.529,0,0,1,479.274,290.715Z" transform="translate(7.404 11.25)" fill="#F47008"/>
    </g>
  </g>
</svg>
