<svg xmlns="http://www.w3.org/2000/svg" width="14.282" height="8.458" viewBox="0 0 14.282 8.458">
  <path id="paid-meal-icon" d="M102.305,129.719a.246.246,0,1,0,0,.492h.845v.718a6.123,6.123,0,0,0-5.82,5.212h-.057a1.018,1.018,0,0,0,0,2.036h12.246a1.018,1.018,0,0,0,0-2.036h-.057a6.123,6.123,0,0,0-5.82-5.212v-.718h.845a.246.246,0,1,0,0-.492Zm1.091,1.7a5.623,5.623,0,0,1,5.568,4.724H97.828a5.623,5.623,0,0,1,5.568-4.724Zm-1.462,1.143h0a.248.248,0,0,0-.113.021,6.121,6.121,0,0,0-1.813,1.21h0a.246.246,0,1,0,.342.354,5.626,5.626,0,0,1,1.667-1.112h0a.246.246,0,0,0-.083-.473Zm-4.661,4.073h12.246a.525.525,0,0,1,0,1.051H97.273a.525.525,0,1,1,0-1.051Z" transform="translate(-96.256 -129.719)" fill="#686868"/>
</svg>
