<svg xmlns="http://www.w3.org/2000/svg" width="39.737" height="34.66" viewBox="0 0 39.737 34.66">
  <g id="payment-method-icon" transform="translate(-209.745 -122.421)">
    <path id="Path_641" data-name="Path 641" d="M591.556,399.6h-2.931a1.029,1.029,0,1,0,0,2.058h2.931a1.029,1.029,0,0,0,0-2.058Z" transform="translate(-347.534 -254.938)"/>
    <path id="Path_642" data-name="Path 642" d="M591.556,452.081h-2.931a1.029,1.029,0,0,0,0,2.059h2.931a1.029,1.029,0,0,0,0-2.059Z" transform="translate(-347.534 -303.21)"/>
    <path id="Path_643" data-name="Path 643" d="M245.175,133.29h-7.09v-6.517a4.355,4.355,0,0,0-4.356-4.352H214.1a4.356,4.356,0,0,0-4.352,4.352v15.076a4.356,4.356,0,0,0,4.352,4.364h7.044v6.563a4.31,4.31,0,0,0,4.3,4.306h19.733a4.311,4.311,0,0,0,4.306-4.306V137.6a4.311,4.311,0,0,0-4.306-4.306Zm0,2.058a2.252,2.252,0,0,1,2.248,2.248v1.042h-9.337v-3.294Zm-33.372,6.5V126.773a2.3,2.3,0,0,1,2.293-2.293H233.73a2.3,2.3,0,0,1,2.293,2.293v15.076a2.3,2.3,0,0,1-2.293,2.305H214.1a2.3,2.3,0,0,1-2.293-2.305Zm33.372,13.174H225.442a2.252,2.252,0,0,1-2.248-2.248v-6.563h10.535a4.355,4.355,0,0,0,4.356-4.364v-1.157h9.337v12.083a2.252,2.252,0,0,1-2.248,2.248Z" transform="translate(0)" fill="#f47008"/>
    <path id="Path_644" data-name="Path 644" d="M272,329.559h-2.882a1.029,1.029,0,1,0,0,2.058H272a1.029,1.029,0,0,0,0-2.058Z" transform="translate(-53.659 -190.518)"/>
    <path id="Path_645" data-name="Path 645" d="M359.53,329.559h-2.882a1.029,1.029,0,1,0,0,2.058h2.882a1.029,1.029,0,1,0,0-2.058Z" transform="translate(-134.17 -190.518)"/>
    <path id="Path_646" data-name="Path 646" d="M447.07,329.559h-2.882a1.029,1.029,0,0,0,0,2.058h2.882a1.029,1.029,0,1,0,0-2.058Z" transform="translate(-214.686 -190.518)"/>
    <path id="Path_647" data-name="Path 647" d="M271.888,193.687h-1.062a2.845,2.845,0,0,0,0,5.69h1.062a2.845,2.845,0,0,0,0-5.69Zm0,3.631h-1.062a.786.786,0,0,1,0-1.573h1.062a.786.786,0,0,1,0,1.573Z" transform="translate(-53.563 -65.548)"/>
  </g>
</svg>
