<svg xmlns="http://www.w3.org/2000/svg" width="27.81" height="27.81" viewBox="0 0 27.81 27.81">
  <g id="plane" transform="translate(13.905) rotate(45)">
    <path id="Path_511" data-name="Path 511" d="M18.07,0a4.009,4.009,0,0,0-2.657,1.329c-1.361,1.225-2.7,2.6-3.986,3.986L.8,3.189,0,4.783,7.972,8.769,3.455,14.084C2.419,13.743.8,13.356.8,14.615a1.334,1.334,0,0,0,.266.8L4.252,18.6a1.335,1.335,0,0,0,.8.266c1.26,0,.872-1.621.531-2.657l5.315-4.517,3.986,7.972,1.594-.8L14.349,8.238c1.388-1.288,2.761-2.625,3.986-3.986a4.009,4.009,0,0,0,1.329-2.657A1.676,1.676,0,0,0,19.23.434,1.676,1.676,0,0,0,18.07,0Z" transform="translate(0 0)" fill="#dcdcdc"/>
  </g>
</svg>
