<svg xmlns="http://www.w3.org/2000/svg" width="84.418" height="64.162" viewBox="0 0 84.418 64.162">
  <path id="qotes-icon" d="M49.412,75.912a22.627,22.627,0,0,1-5.7-16.379q0-22.775,30.686-41.833l2.092,3.249Q54.877,35.126,54.882,49.3c0,.113.019.207.019.315A17.817,17.817,0,0,1,80.255,74.5c-.213.269-.493.538-.721.808-.11.118-.213.237-.328.35a16.835,16.835,0,0,1-1.327,1.416,20.323,20.323,0,0,1-14.067,4.77,19.112,19.112,0,0,1-14.4-5.922Zm-43.69,0A22.651,22.651,0,0,1,.029,59.527Q.029,36.76,30.715,17.7l2.094,3.249C18.7,30.209,11.545,39.463,11.251,48.715A17.752,17.752,0,0,1,39.539,65.428v.143a14.869,14.869,0,0,1-5.338,11.5,20.328,20.328,0,0,1-14.059,4.764A19.13,19.13,0,0,1,5.733,75.915Z" transform="translate(0.009 -17.7)" fill="rgba(244,112,8,0.15)"/>
</svg>
