<svg xmlns="http://www.w3.org/2000/svg" width="33.313" height="38.022" viewBox="0 0 33.313 38.022">
  <g id="review-icon" transform="translate(-142.802 -43.512)">
    <path id="Path_537" data-name="Path 537" d="M171.163,43.512H147.754a4.952,4.952,0,0,0-4.952,4.952V76.582a4.952,4.952,0,0,0,4.952,4.952h23.409a4.952,4.952,0,0,0,4.952-4.952V48.464a4.952,4.952,0,0,0-4.952-4.952Zm2.251,33.07a2.251,2.251,0,0,1-2.251,2.251H147.754a2.251,2.251,0,0,1-2.251-2.251V48.465a2.251,2.251,0,0,1,2.251-2.251h23.409a2.251,2.251,0,0,1,2.251,2.251Z" transform="translate(0 0)" fill="#f47008"/>
    <path id="Path_538" data-name="Path 538" d="M210.219,266h-2.228a1.351,1.351,0,0,0,0,2.7h2.228a1.351,1.351,0,1,0,0-2.7Z" transform="translate(-58.706 -204.602)"/>
    <path id="Path_539" data-name="Path 539" d="M310.174,266H296.98a1.351,1.351,0,0,0,0,2.7h13.194a1.351,1.351,0,1,0,0-2.7Z" transform="translate(-140.541 -204.602)"/>
    <path id="Path_540" data-name="Path 540" d="M210.219,165.2h-2.228a1.351,1.351,0,0,0,0,2.7h2.228a1.351,1.351,0,0,0,0-2.7Z" transform="translate(-58.706 -111.906)"/>
    <path id="Path_541" data-name="Path 541" d="M310.174,165.2H296.98a1.351,1.351,0,0,0,0,2.7h13.194a1.351,1.351,0,1,0,0-2.7Z" transform="translate(-140.541 -111.906)"/>
    <path id="Path_542" data-name="Path 542" d="M210.219,366.8h-2.228a1.35,1.35,0,1,0,0,2.7h2.228a1.35,1.35,0,1,0,0-2.7Z" transform="translate(-58.706 -297.299)"/>
    <path id="Path_543" data-name="Path 543" d="M310.174,366.8H296.98a1.35,1.35,0,1,0,0,2.7h13.194a1.35,1.35,0,1,0,0-2.7Z" transform="translate(-140.541 -297.299)"/>
  </g>
</svg>
