<svg xmlns="http://www.w3.org/2000/svg" width="68.164" height="70.158" viewBox="0 0 68.164 70.158">
  <g id="satisfaction" transform="translate(-23.983 -21.636)">
    <path id="Path_486" data-name="Path 486" d="M90.526,59.577l-.038-.023a7.209,7.209,0,0,1-.381-8.6,7.2,7.2,0,0,0-4.131-11.021,7.218,7.218,0,0,1-5.335-6.738A7.217,7.217,0,0,0,70.816,26.7a7.219,7.219,0,0,1-8.3-2.287,7.218,7.218,0,0,0-11.76.526,7.218,7.218,0,0,1-8.064,3.049,7.2,7.2,0,0,0-9.207,7.332,7.209,7.209,0,0,1-4.748,7.188A7.218,7.218,0,0,0,25.6,53.853a7.242,7.242,0,0,1,.389,8.612A7.2,7.2,0,0,0,30.161,73.5,7.21,7.21,0,0,1,35.5,80.239a7.218,7.218,0,0,0,9.824,6.486,7.217,7.217,0,0,1,8.3,2.287,7.218,7.218,0,0,0,11.761-.526,7.211,7.211,0,0,1,8.064-3.048,7.2,7.2,0,0,0,9.2-7.332,7.209,7.209,0,0,1,4.748-7.188,7.218,7.218,0,0,0,3.133-11.341Zm-12.752,7.43a22.2,22.2,0,1,1-9.5-29.916h0a22.194,22.194,0,0,1,9.5,29.915Z" transform="translate(0 0)"/>
    <path id="Path_487" data-name="Path 487" d="M206.165,273.412a10.9,10.9,0,0,1-19-9.832,1.784,1.784,0,0,1,2.531-1.044l15.868,8.216a1.783,1.783,0,0,1,.6,2.66Z" transform="translate(-140.592 -207.936)" fill="#f47008"/>
    <path id="Path_488" data-name="Path 488" d="M223.607,193.047a3.727,3.727,0,1,0-1.844-2.183,3.729,3.729,0,0,0,1.844,2.183Z" transform="translate(-170.709 -142)" fill="#f47008"/>
    <path id="Path_489" data-name="Path 489" d="M321.043,235.106a2.211,2.211,0,1,0,0-.015Z" transform="translate(-251.934 -184.059)" fill="#f47008"/>
  </g>
</svg>
