<svg xmlns="http://www.w3.org/2000/svg" width="306" height="44.3" viewBox="0 0 306 44.3">
  <g id="seatSprite" transform="translate(-924.107 -475.048)">
    <path id="Path_21" data-name="Path 21" d="M-368.127-125.658a6.027,6.027,0,0,1-3.526-1.661,4.038,4.038,0,0,1-.907-1.361c-.9-2.7-1.786-5.4-2.586-8.122-.466-1.585.815-2.845,2.87-2.835,1.743.009,3.486.157,5.228.255q5.009.28,10.018.573,3.131.178,6.262.352c.161.009.323,0,.539,0,.3-1.095.593-2.188.886-3.283q1.819-6.8,3.639-13.605c.554-2.056,2.617-3.359,5.275-3.363,1.292,0,2.585-.015,3.877.005.812.012,1.624.077,2.511.122l.464-3.11a33.451,33.451,0,0,1-6.745.18c-2.329-.069-3.854-1.565-3.68-3.426a4.85,4.85,0,0,1,2.009-3.8,7.418,7.418,0,0,1,3.25-1.222h4.587a1.309,1.309,0,0,0,.2.062c2.264.336,3.752,1.688,3.714,3.5a21.316,21.316,0,0,1-.4,2.474q-.835,5.9-1.648,11.809c-.5,3.666-.973,7.334-1.463,11q-.8,6.016-1.615,12.031a3.5,3.5,0,0,1-1.291,2.28,6.118,6.118,0,0,1-2.635,1.137Z" transform="translate(1299.349 645.006)" fill="#2751bd"/>
    <path id="Path_22" data-name="Path 22" d="M-368.127-125.658a6.027,6.027,0,0,1-3.526-1.661,4.038,4.038,0,0,1-.907-1.361c-.9-2.7-1.786-5.4-2.586-8.122-.466-1.585.815-2.845,2.87-2.835,1.743.009,3.486.157,5.228.255q5.009.28,10.018.573,3.131.178,6.262.352c.161.009.323,0,.539,0,.3-1.095.593-2.188.886-3.283q1.819-6.8,3.639-13.605c.554-2.056,2.617-3.359,5.275-3.363,1.292,0,2.585-.015,3.877.005.812.012,1.624.077,2.511.122l.464-3.11a33.451,33.451,0,0,1-6.745.18c-2.329-.069-3.854-1.565-3.68-3.426a4.85,4.85,0,0,1,2.009-3.8,7.418,7.418,0,0,1,3.25-1.222h4.587a1.309,1.309,0,0,0,.2.062c2.264.336,3.752,1.688,3.714,3.5a21.316,21.316,0,0,1-.4,2.474q-.835,5.9-1.648,11.809c-.5,3.666-.973,7.334-1.463,11q-.8,6.016-1.615,12.031a3.5,3.5,0,0,1-1.291,2.28,6.118,6.118,0,0,1-2.635,1.137Z" transform="translate(1352.349 645.006)" fill="#167300"/>
    <path id="Path_23" data-name="Path 23" d="M-368.127-125.658a6.027,6.027,0,0,1-3.526-1.661,4.038,4.038,0,0,1-.907-1.361c-.9-2.7-1.786-5.4-2.586-8.122-.466-1.585.815-2.845,2.87-2.835,1.743.009,3.486.157,5.228.255q5.009.28,10.018.573,3.131.178,6.262.352c.161.009.323,0,.539,0,.3-1.095.593-2.188.886-3.283q1.819-6.8,3.639-13.605c.554-2.056,2.617-3.359,5.275-3.363,1.292,0,2.585-.015,3.877.005.812.012,1.624.077,2.511.122l.464-3.11a33.451,33.451,0,0,1-6.745.18c-2.329-.069-3.854-1.565-3.68-3.426a4.85,4.85,0,0,1,2.009-3.8,7.418,7.418,0,0,1,3.25-1.222h4.587a1.309,1.309,0,0,0,.2.062c2.264.336,3.752,1.688,3.714,3.5a21.316,21.316,0,0,1-.4,2.474q-.835,5.9-1.648,11.809c-.5,3.666-.973,7.334-1.463,11q-.8,6.016-1.615,12.031a3.5,3.5,0,0,1-1.291,2.28,6.118,6.118,0,0,1-2.635,1.137Z" transform="translate(1405.349 645.006)" fill="#2e84c7"/>
    <path id="Path_24" data-name="Path 24" d="M-368.127-125.658a6.027,6.027,0,0,1-3.526-1.661,4.038,4.038,0,0,1-.907-1.361c-.9-2.7-1.786-5.4-2.586-8.122-.466-1.585.815-2.845,2.87-2.835,1.743.009,3.486.157,5.228.255q5.009.28,10.018.573,3.131.178,6.262.352c.161.009.323,0,.539,0,.3-1.095.593-2.188.886-3.283q1.819-6.8,3.639-13.605c.554-2.056,2.617-3.359,5.275-3.363,1.292,0,2.585-.015,3.877.005.812.012,1.624.077,2.511.122l.464-3.11a33.451,33.451,0,0,1-6.745.18c-2.329-.069-3.854-1.565-3.68-3.426a4.85,4.85,0,0,1,2.009-3.8,7.418,7.418,0,0,1,3.25-1.222h4.587a1.309,1.309,0,0,0,.2.062c2.264.336,3.752,1.688,3.714,3.5a21.316,21.316,0,0,1-.4,2.474q-.835,5.9-1.648,11.809c-.5,3.666-.973,7.334-1.463,11q-.8,6.016-1.615,12.031a3.5,3.5,0,0,1-1.291,2.28,6.118,6.118,0,0,1-2.635,1.137Z" transform="translate(1456.349 645.006)" fill="#0b386c"/>
    <path id="Path_25" data-name="Path 25" d="M-368.127-125.658a6.027,6.027,0,0,1-3.526-1.661,4.038,4.038,0,0,1-.907-1.361c-.9-2.7-1.786-5.4-2.586-8.122-.466-1.585.815-2.845,2.87-2.835,1.743.009,3.486.157,5.228.255q5.009.28,10.018.573,3.131.178,6.262.352c.161.009.323,0,.539,0,.3-1.095.593-2.188.886-3.283q1.819-6.8,3.639-13.605c.554-2.056,2.617-3.359,5.275-3.363,1.292,0,2.585-.015,3.877.005.812.012,1.624.077,2.511.122l.464-3.11a33.451,33.451,0,0,1-6.745.18c-2.329-.069-3.854-1.565-3.68-3.426a4.85,4.85,0,0,1,2.009-3.8,7.418,7.418,0,0,1,3.25-1.222h4.587a1.309,1.309,0,0,0,.2.062c2.264.336,3.752,1.688,3.714,3.5a21.316,21.316,0,0,1-.4,2.474q-.835,5.9-1.648,11.809c-.5,3.666-.973,7.334-1.463,11q-.8,6.016-1.615,12.031a3.5,3.5,0,0,1-1.291,2.28,6.118,6.118,0,0,1-2.635,1.137Z" transform="translate(1509.349 645.006)" fill="#e07400"/>
    <path id="Path_26" data-name="Path 26" d="M-368.127-125.658a6.027,6.027,0,0,1-3.526-1.661,4.038,4.038,0,0,1-.907-1.361c-.9-2.7-1.786-5.4-2.586-8.122-.466-1.585.815-2.845,2.87-2.835,1.743.009,3.486.157,5.228.255q5.009.28,10.018.573,3.131.178,6.262.352c.161.009.323,0,.539,0,.3-1.095.593-2.188.886-3.283q1.819-6.8,3.639-13.605c.554-2.056,2.617-3.359,5.275-3.363,1.292,0,2.585-.015,3.877.005.812.012,1.624.077,2.511.122l.464-3.11a33.451,33.451,0,0,1-6.745.18c-2.329-.069-3.854-1.565-3.68-3.426a4.85,4.85,0,0,1,2.009-3.8,7.418,7.418,0,0,1,3.25-1.222h4.587a1.309,1.309,0,0,0,.2.062c2.264.336,3.752,1.688,3.714,3.5a21.316,21.316,0,0,1-.4,2.474q-.835,5.9-1.648,11.809c-.5,3.666-.973,7.334-1.463,11q-.8,6.016-1.615,12.031a3.5,3.5,0,0,1-1.291,2.28,6.118,6.118,0,0,1-2.635,1.137Z" transform="translate(1560.349 645.006)" fill="#d20d0d"/>
  </g>
</svg>
