<?xml version="1.0" encoding="utf-8"?>
<!-- Generator: Adobe Illustrator 19.0.0, SVG Export Plug-In . SVG Version: 6.00 Build 0)  -->
<svg version="1.1" id="Layer_1" xmlns="http://www.w3.org/2000/svg" xmlns:xlink="http://www.w3.org/1999/xlink" x="0px" y="0px"
	 viewBox="104 -3.3 362.3 46" style="enable-background:new 104 -3.3 362.3 46;" xml:space="preserve">
<style type="text/css">
	.st0{fill:#5A83FA;stroke:#2751BD;stroke-width:2;stroke-miterlimit:10;}
	.st1{fill:#86D973;stroke:#167300;stroke-width:2;stroke-miterlimit:10;}
	.st2{fill:#91C3EB;stroke:#2E84C7;stroke-width:2;stroke-miterlimit:10;}
	.st3{fill:#7088A3;stroke:#0B386C;stroke-width:2;stroke-miterlimit:10;}
</style>
<path class="st0" d="M109.8,33.4L109.8,33.4c-2.6,0-4.7-2.1-4.7-4.7V9.9c0-2.6,2.1-4.7,4.7-4.7h0c2.6,0,4.7,2.1,4.7,4.7v18.8
	C114.5,31.3,112.4,33.4,109.8,33.4z"/>
<g>
	<path class="st0" d="M175.7,36.9H128c-3.3,0-6-2.7-6-6V7.7c0-3.3,2.7-6,6-6h47.7c3.3,0,6,2.7,6,6v23.2
		C181.7,34.2,179,36.9,175.7,36.9z"/>
	<path class="st0" d="M176.3,7.7h-15.3c-2.8,0-5-2.2-5-5v0c0-2.7,2.2-5,5-5h15.3c2.7,0,5,2.2,5,5v0C181.3,5.4,179.1,7.7,176.3,7.7z"
		/>
	<path class="st0" d="M176.3,40.9h-15.3c-2.8,0-5-2.2-5-5v0c0-2.8,2.2-5,5-5h15.3c2.7,0,5,2.2,5,5v0
		C181.3,38.6,179.1,40.9,176.3,40.9z"/>
</g>
<path class="st0" d="M182.3,35.5L182.3,35.5c-3.2,0-5.8-2.6-5.8-5.7V10.3c0-3.2,2.6-5.7,5.8-5.7l0,0c3.2,0,5.8,2.6,5.8,5.7v19.5
	C188,32.9,185.4,35.5,182.3,35.5z"/>
<path class="st1" d="M200.6,33.4L200.6,33.4c-2.6,0-4.7-2.1-4.7-4.7V9.9c0-2.6,2.1-4.7,4.7-4.7l0,0c2.6,0,4.7,2.1,4.7,4.7v18.8
	C205.3,31.3,203.2,33.4,200.6,33.4z"/>
<g>
	<path class="st1" d="M266.5,36.9h-47.7c-3.3,0-6-2.7-6-6V7.7c0-3.3,2.7-6,6-6h47.7c3.3,0,6,2.7,6,6v23.2
		C272.5,34.2,269.8,36.9,266.5,36.9z"/>
	<path class="st1" d="M267.1,7.7h-15.3c-2.8,0-5-2.2-5-5v0c0-2.7,2.3-5,5-5h15.3c2.7,0,5,2.2,5,5v0C272.1,5.4,269.9,7.7,267.1,7.7z"
		/>
	<path class="st1" d="M267.1,40.9h-15.3c-2.8,0-5-2.2-5-5v0c0-2.8,2.3-5,5-5h15.3c2.7,0,5,2.2,5,5v0
		C272.1,38.6,269.9,40.9,267.1,40.9z"/>
</g>
<path class="st1" d="M273,35.5L273,35.5c-3.2,0-5.8-2.6-5.8-5.7V10.3c0-3.2,2.6-5.7,5.8-5.7l0,0c3.2,0,5.8,2.6,5.8,5.7v19.5
	C278.8,32.9,276.2,35.5,273,35.5z"/>
<path class="st2" d="M292,33.4L292,33.4c-2.6,0-4.7-2.1-4.7-4.7V9.9c0-2.6,2.1-4.7,4.7-4.7l0,0c2.6,0,4.7,2.1,4.7,4.7v18.8
	C296.6,31.3,294.5,33.4,292,33.4z"/>
<g>
	<path class="st2" d="M357.8,36.9h-47.7c-3.3,0-6-2.7-6-6V7.7c0-3.3,2.7-6,6-6h47.7c3.3,0,6,2.7,6,6v23.2
		C363.8,34.2,361.1,36.9,357.8,36.9z"/>
	<path class="st2" d="M358.5,7.7h-15.3c-2.8,0-5-2.2-5-5v0c0-2.7,2.3-5,5-5h15.3c2.8,0,5,2.2,5,5v0C363.5,5.4,361.2,7.7,358.5,7.7z"
		/>
	<path class="st2" d="M358.5,40.9h-15.3c-2.8,0-5-2.2-5-5v0c0-2.8,2.3-5,5-5h15.3c2.8,0,5,2.2,5,5v0
		C363.5,38.6,361.2,40.9,358.5,40.9z"/>
</g>
<path class="st2" d="M364.4,35.5L364.4,35.5c-3.2,0-5.8-2.6-5.8-5.7V10.3c0-3.2,2.6-5.7,5.7-5.7h0c3.2,0,5.8,2.6,5.8,5.7v19.5
	C370.1,32.9,367.5,35.5,364.4,35.5z"/>
<path class="st3" d="M384.6,33.4L384.6,33.4c-2.6,0-4.7-2.1-4.7-4.7V9.9c0-2.6,2.1-4.7,4.7-4.7h0c2.6,0,4.7,2.1,4.7,4.7v18.8
	C389.3,31.3,387.2,33.4,384.6,33.4z"/>
<g>
	<path class="st3" d="M450.5,36.9h-47.7c-3.3,0-6-2.7-6-6V7.7c0-3.3,2.7-6,6-6h47.7c3.3,0,6,2.7,6,6v23.2
		C456.5,34.2,453.8,36.9,450.5,36.9z"/>
	<path class="st3" d="M451.1,7.7h-15.3c-2.8,0-5-2.2-5-5v0c0-2.7,2.2-5,5-5h15.3c2.7,0,5,2.2,5,5v0C456.1,5.4,453.9,7.7,451.1,7.7z"
		/>
	<path class="st3" d="M451.1,40.9h-15.3c-2.8,0-5-2.2-5-5v0c0-2.8,2.2-5,5-5h15.3c2.7,0,5,2.2,5,5v0
		C456.1,38.6,453.9,40.9,451.1,40.9z"/>
</g>
<path class="st3" d="M457,35.5L457,35.5c-3.2,0-5.8-2.6-5.8-5.7V10.3c0-3.2,2.6-5.7,5.8-5.7l0,0c3.2,0,5.8,2.6,5.8,5.7v19.5
	C462.8,32.9,460.2,35.5,457,35.5z"/>
</svg>
