<svg xmlns="http://www.w3.org/2000/svg" width="38.16" height="38.16" viewBox="0 0 38.16 38.16">
  <g id="services-request-icon" transform="translate(-81.668 -11.666)">
    <path id="Path_556" data-name="Path 556" d="M115.68,49.826H85.816a4.154,4.154,0,0,1-4.148-4.148V15.814a4.154,4.154,0,0,1,4.148-4.148H115.68a4.154,4.154,0,0,1,4.148,4.148V45.678A4.154,4.154,0,0,1,115.68,49.826Zm-29.865-36.5a2.492,2.492,0,0,0-2.489,2.489V45.679a2.492,2.492,0,0,0,2.489,2.489H115.68a2.492,2.492,0,0,0,2.489-2.489V15.814a2.492,2.492,0,0,0-2.489-2.489Z" fill="#f47008"/>
    <g id="noun-plus-2178969" transform="translate(19.367 19.385)">
      <path id="Path_603" data-name="Path 603" d="M190.562,260h-.012a.836.836,0,0,0,0,1.672h11.723a.836.836,0,0,0,0-1.672H190.562Z" transform="translate(-114.693 -249.136)"/>
      <path id="Path_604" data-name="Path 604" d="M331.664,120.562v-.012a.836.836,0,0,0-1.672,0v.012h0v11.711a.836.836,0,1,0,1.672,0v-.012h0Z" transform="translate(-249.109 -114.712)"/>
      <path id="Path_605" data-name="Path 605" d="M81.719,0a11.7,11.7,0,1,0,11.7,11.7A11.712,11.712,0,0,0,81.719,0Zm0,1.672A10.029,10.029,0,1,1,71.691,11.7,10.016,10.016,0,0,1,81.719,1.672Z"/>
    </g>
  </g>
</svg>
