<svg xmlns="http://www.w3.org/2000/svg" width="38.16" height="38.022" viewBox="0 0 38.16 38.022">
  <g id="travel-insurance-icon" transform="translate(-81.668 -12.011)">
    <path id="Path_689" data-name="Path 689" d="M175.29,43.512H148.474a6.117,6.117,0,0,0-4.011,1.45,4.655,4.655,0,0,0-1.661,3.5V76.582a4.655,4.655,0,0,0,1.661,3.5,6.117,6.117,0,0,0,4.011,1.45H175.29a6.117,6.117,0,0,0,4.011-1.45,4.655,4.655,0,0,0,1.662-3.5V48.464a4.655,4.655,0,0,0-1.662-3.5,6.117,6.117,0,0,0-4.011-1.45Zm2.578,33.07a2.117,2.117,0,0,1-.755,1.592,2.78,2.78,0,0,1-1.823.659H148.474a2.78,2.78,0,0,1-1.823-.659,2.117,2.117,0,0,1-.755-1.592V48.465a2.117,2.117,0,0,1,.755-1.592,2.78,2.78,0,0,1,1.823-.659H175.29a2.78,2.78,0,0,1,1.823.659,2.117,2.117,0,0,1,.755,1.592Z" transform="translate(-61.134 -31.501)" fill="#f47008"/>
    <path id="Path_561" data-name="Path 561" d="M156.819,17.5l.993,2.459c-.324-.021-.647-.049-.976-.049h-.012c-.308,0-.608.028-.911.046ZM144.878,32.119a3.471,3.471,0,0,0-2.376.93A14.52,14.52,0,0,1,154.467,20.99a13.888,13.888,0,0,0-7.107,12.17,3.464,3.464,0,0,0-2.482-1.042Zm8.961,1.694a3.453,3.453,0,0,0-5.627-.448,12.938,12.938,0,0,1,8.174-12.332V32.177a3.468,3.468,0,0,0-.676.144.428.428,0,0,0-.239.1,3.4,3.4,0,0,0-1.632,1.392Zm3.5,10.889a2.844,2.844,0,0,1-5.687,0v-.73a.575.575,0,0,1,1.149,0v.73a1.694,1.694,0,1,0,3.389,0V33.376a2.615,2.615,0,0,1,.636-.087,2.658,2.658,0,0,1,.513.05Zm5.46-12.583a3.449,3.449,0,0,0-2.987,1.694,3.4,3.4,0,0,0-1.783-1.455.424.424,0,0,0-.179-.074,3.491,3.491,0,0,0-.587-.107V21.006a12.927,12.927,0,0,1,8.175,12.359,3.436,3.436,0,0,0-2.64-1.246Zm5.973,0a3.459,3.459,0,0,0-2.482,1.043,13.89,13.89,0,0,0-7.107-12.172,14.521,14.521,0,0,1,11.965,12.059,3.471,3.471,0,0,0-2.376-.93Z" transform="translate(-56.067 -1.501)"/>
  </g>
</svg>
