<svg xmlns="http://www.w3.org/2000/svg" width="38.16" height="38.16" viewBox="0 0 38.16 38.16">
  <g id="traveller-details-icon" transform="translate(-81.668 -11.666)">
    <path id="Path_554" data-name="Path 554" d="M230.8,76.581a9.125,9.125,0,1,1,9.125-9.126A9.135,9.135,0,0,1,230.8,76.581Zm0-16.591a7.466,7.466,0,1,0,7.466,7.466A7.475,7.475,0,0,0,230.8,59.99Z" transform="translate(-130.047 -43.346)"/>
    <path id="Path_555" data-name="Path 555" d="M269.247,116.409a7.05,7.05,0,0,0-3.891-4.181,4.148,4.148,0,1,0-5.508,0,7.055,7.055,0,0,0-3.891,4.181.826.826,0,0,0,.2.856,9.122,9.122,0,0,0,12.894,0,.831.831,0,0,0,.2-.858Z" transform="translate(-161.854 -86.699)"/>
    <path id="Path_556" data-name="Path 556" d="M115.68,49.826H85.816a4.154,4.154,0,0,1-4.148-4.148V15.814a4.154,4.154,0,0,1,4.148-4.148H115.68a4.154,4.154,0,0,1,4.148,4.148V45.678A4.154,4.154,0,0,1,115.68,49.826Zm-29.865-36.5a2.492,2.492,0,0,0-2.489,2.489V45.679a2.492,2.492,0,0,0,2.489,2.489H115.68a2.492,2.492,0,0,0,2.489-2.489V15.814a2.492,2.492,0,0,0-2.489-2.489Z" fill="#f47008"/>
    <path id="Path_557" data-name="Path 557" d="M210.219,165.2h-2.228a1.351,1.351,0,0,0,0,2.7h2.228a1.351,1.351,0,0,0,0-2.7Z" transform="translate(-120.84 -129.752)"/>
    <path id="Path_559" data-name="Path 559" d="M210.219,165.2h-2.228a1.351,1.351,0,0,0,0,2.7h2.228a1.351,1.351,0,0,0,0-2.7Z" transform="translate(-120.84 -124.837)"/>
    <path id="Path_558" data-name="Path 558" d="M310.174,165.2H296.98a1.351,1.351,0,0,0,0,2.7h13.194a1.351,1.351,0,1,0,0-2.7Z" transform="translate(-202.676 -129.752)"/>
    <path id="Path_560" data-name="Path 560" d="M307.2,165.2H296.7a1.059,1.059,0,0,0-.931.675,1.656,1.656,0,0,0,0,1.35,1.059,1.059,0,0,0,.931.675h10.5a1.059,1.059,0,0,0,.931-.675,1.656,1.656,0,0,0,0-1.35A1.059,1.059,0,0,0,307.2,165.2Z" transform="translate(-202.676 -124.837)"/>
  </g>
</svg>
