<svg xmlns="http://www.w3.org/2000/svg" width="34.896" height="64.887" viewBox="0 0 34.896 64.887">
  <g id="traveller-bag-icon" transform="translate(-360.583 -230.476)">
    <path id="Path_597" data-name="Path 597" d="M425.883,507.325V503.91H410.641v6.745h15.242Z" transform="translate(-40.239 -219.796)" fill="#686868"/>
    <path id="Path_598" data-name="Path 598" d="M389.561,237.29h-4.48v-3.724a3.088,3.088,0,0,0-3.072-3.089h-7.948a3.107,3.107,0,0,0-3.089,3.09v3.725h-4.48a5.9,5.9,0,0,0-5.9,5.922v5.562h34.9v-5.493a5.922,5.922,0,0,0-5.922-5.991Zm-7.81-3.433v3.433H374.3v-3.433Zm-.927,12.462h-5.613a1.717,1.717,0,0,1,0-3.33h5.613a1.717,1.717,0,0,1,0,3.33Z" transform="translate(-0.003)" fill="#686868"/>
    <path id="Path_599" data-name="Path 599" d="M424.715,431.81h-12.89a1.184,1.184,0,0,0-1.185,1.167v9.646h15.242v-9.7a1.167,1.167,0,0,0-1.167-1.116Z" transform="translate(-40.238 -161.839)" fill="#f47008"/>
    <path id="Path_600" data-name="Path 600" d="M363.913,340.29h-3.33v32.92a5.923,5.923,0,0,0,5.9,5.922h.6V359.358a4.5,4.5,0,0,1,4.514-4.5h12.891a4.5,4.5,0,0,1,4.479,4.5v19.773h.584a5.939,5.939,0,0,0,5.922-5.922V340.29Z" transform="translate(0 -88.272)" fill="#686868"/>
    <path id="Path_601" data-name="Path 601" d="M488.13,540.674a1.717,1.717,0,1,0,3.33,0v-2.368h-3.33Z" transform="translate(-102.486 -247.445)" fill="#f47008"/>
    <path id="Path_602" data-name="Path 602" d="M393.75,540.674a1.717,1.717,0,0,0,3.33,0v-2.368h-3.33Z" transform="translate(-26.661 -247.445)" fill="#f47008"/>
  </g>
</svg>
